<?xml version="1.0" encoding="UTF-8"?><svg id="a" xmlns="http://www.w3.org/2000/svg" width="1400.6" height="217.5" viewBox="0 0 1400.6 217.5"><path d="M1400.6,201.2c0,3.4-1.2,6.4-3.7,8.8-2.4,2.4-5.4,3.6-8.8,3.6s-6.4-1.2-8.8-3.6c-2.4-2.4-3.6-5.4-3.6-8.8s1.2-6.4,3.6-8.8c2.4-2.4,5.4-3.7,8.8-3.7s6.4,1.2,8.8,3.7c2.4,2.4,3.7,5.4,3.7,8.8ZM1399.4,201.2c0-3.1-1.1-5.7-3.3-7.9-2.2-2.2-4.8-3.3-7.9-3.3s-5.7,1.1-7.9,3.3c-2.2,2.2-3.3,4.8-3.3,7.9s1.1,5.7,3.3,7.9c2.2,2.2,4.8,3.3,7.9,3.3s5.7-1.1,7.9-3.3c2.2-2.2,3.3-4.8,3.3-7.9ZM1395.4,208.1h-3.3l-5-6.7h-1.2v5c0,.7.6,1.1,1.9,1.1v.6h-6.1v-.6c.7,0,1.1-.1,1.4-.4.3-.3.4-.7.4-1.3v-9.7c0-.8,0-1.2-.3-1.5-.2-.2-.6-.3-1.3-.3v-.7h6.4c1.3,0,2.4.3,3.3.9,1.1.7,1.6,1.7,1.6,3s-.3,1.8-1,2.4-1.5,1-2.5,1.2l4,5.4c.5.7,1.1,1,1.7,1v.6ZM1390.8,197.6c0-1.8-1.4-2.7-4.2-2.7s-.5,0-.7,0v5.7c3.3-.3,4.9-1.3,4.9-3Z" style="fill:#fff;"/><path d="M203.4,6.9c0,2-2.1,3-6.3,3-8,0-14.9,5.4-20.7,16.2-1.2,2-4.8,10.9-10.8,26.7l-62.7,164.7h-3.6L38.1,52.8c-5.6-15-9.2-23.9-10.8-26.7C21.5,15.3,14.5,9.9,6.3,9.9S0,8.9,0,6.9s2.1-2.7,6.3-2.7h76.2c2.8,0,4.2.6,4.2,1.8,0,2-2.3,3.3-6.9,3.9-6.8,1-11.1,1.8-12.9,2.4-4.6,2-6.9,5.6-6.9,10.8s.7,5.8,2.1,9.6l50.7,138.9,52.5-138.9c1.4-3.8,2.1-7,2.1-9.6,0-5.2-2.3-8.8-6.9-10.8-1.8-.6-6.1-1.4-12.9-2.4-4.6-.6-6.9-1.9-6.9-3.9s1.4-1.8,4.2-1.8h52.2c4.2,0,6.3.9,6.3,2.7Z" style="fill:#fff;"/><path d="M370.5,210.9c-.2,1.8-2.3,2.7-6.3,2.7h-73.8c-3,0-4.5-.6-4.5-1.8,0-2,2.3-3.3,6.9-3.9,6.8-1,11.1-1.8,12.9-2.4,4.6-2,6.9-5.6,6.9-10.8s-.7-5.8-2.1-9.6l-18.9-51.9h-73.2l-19.5,51.9c-1.4,3.8-2.1,7-2.1,9.6,0,5.2,2.3,8.8,6.9,10.8,1.8.6,6.1,1.4,12.9,2.4,4.8.6,7.2,1.9,7.2,3.9s-1.5,1.8-4.5,1.8h-52.5c-4,0-5.9-1-5.7-3,0-1.8,2-2.7,6-2.7,8,0,14.9-5.4,20.7-16.2,1.2-2,4.8-10.9,10.8-26.7L252.3,24.3l-1.5-4.2c6.8-4.2,14-9.6,21.6-16.2l60.3,161.1c5.6,15.2,9.2,24.1,10.8,26.7,5.8,10.8,12.8,16.2,21,16.2s6,1,6,3ZM287.7,122.7l-32.4-89.1-33.3,89.1h65.7Z" style="fill:#fff;"/><path d="M594.9,7.5c0,2-2.1,3-6.3,3-8.6,0-14.4,1-17.4,3-4,2.6-6,8-6,16.2v180.9c0,3.4-.4,5.3-1.2,5.7-2.4-1.6-7.9-7.5-16.5-17.7-5.6-6.8-11.2-13.5-16.8-20.1l-82.5-94.1c-6.6-7.8-13.2-15.7-19.8-23.7-8.2-9.8-15.2-17.1-21-21.9-.6.4-.9,2-.9,4.8v144.6c0,8.2,1.9,13.6,5.8,16.2,3,2,8.9,3,17.6,3s6.4,1,6.4,3-2.1,2.7-6.3,2.7h-53.4c-4.2,0-6.3-1-6.3-3s2.2-2.7,6.6-2.7c8.6,0,14.4-1,17.4-3,3.8-2.6,5.7-8,5.7-16.2V49.5c0-13-1.6-21.5-4.8-25.5-4.6-5.8-7.6-9.2-9-10.2-2.4-1.6-6.7-2.7-12.9-3.3-2.8,0-4.2-.7-4.2-2.1,0-2.4,1.4-3.6,4.2-3.6h45.3l140.1,159.6V29.7c0-8.2-2-13.6-6-16.2-3-2-8.8-3-17.4-3s-6.3-1-6.3-3,2.1-2.7,6.3-2.7h53.4c4.2,0,6.3.9,6.3,2.7Z" style="fill:#fff;"/><path d="M816.6,51.9c0,1.6-.8,2.4-2.4,2.4s-4.3-3.7-8.1-11.1c-4.8-9.2-9.5-16-14.1-20.4-7.8-7.4-17.2-11.1-28.2-11.1s-14.4.7-22.2,2.1c-11.2,1.8-16.8,4.5-16.8,8.1v166.5c0,8.2,2,13.6,6,16.2,3,2,8.9,3,17.7,3s6,1,6,3-2.1,2.7-6.3,2.7h-76.2c-4.2,0-6.2-1-6-3,0-1.8,2-2.7,5.9-2.7,8.5,0,14.5-1.1,18-3.5,3.5-2.3,5.2-7.5,5.2-15.8V21.9c0-3.6-5.5-6.4-16.4-8.4-7.4-1.2-14.8-1.8-22.1-1.8-11,0-20.3,3.7-28.1,11.1-4.6,4.4-9.3,11.2-14.1,20.4-3.8,7.4-6.5,11.1-8.1,11.1s-2.4-.7-2.4-2.1c3.6-14.8,7.6-31.2,12-49.2.4-2,1.2-3,2.4-3-.8,0,3,.9,11.4,2.7,4.8,1,11.1,1.6,18.9,1.8,18,.4,38.7.6,62.1.6s52.2,0,61.2-.3c5.8-.2,12.3-1,19.7-2.5C798.8.8,802.4,0,802.2,0c1.2,0,2,.9,2.4,2.7,4.6,18.6,8.6,35,12,49.2Z" style="fill:#fff;"/><path d="M918.9,210.6c-.2,1.8-2.3,2.7-6.3,2.7h-76.5c-4,0-5.9-1-5.7-3,0-1.8,2-2.7,5.9-2.7,8.5,0,14.5-1.1,18-3.5,3.5-2.3,5.2-7.5,5.2-15.8V29.1c0-8.2-2-13.6-5.9-16.2-3-2-8.8-3-17.5-3s-5.8-1-5.6-3c0-1.8,2-2.7,6-2.7h76.5c4,0,5.9,1,5.7,3,0,1.8-2,2.7-6,2.7-8.6,0-14.4,1-17.4,3-4,2.6-6,8-6,16.2v159.3c0,8.2,2,13.6,6,16.2,3,2,8.9,3,17.7,3s6,1,6,3Z" style="fill:#fff;"/><path d="M1125,156.3c.2,3.8-1.2,13.7-4,29.5-2.9,15.9-5.1,24.4-6.5,25.5-1.4,1.1-7.2,1.7-17.4,2-7.2.2-16.5.2-27.9,0-13.8,0-19.3,0-16.5,0h-108c-4.2,0-6.3-1-6.3-3s2.1-2.7,6.2-2.7c8.5,0,14.3-1,17.2-3,4-2.8,5.9-8.2,5.9-16.2V29.1c0-8.2-2-13.6-5.9-16.2-3-2-8.7-3-17.2-3s-6.2-1-6.2-3,2-2.7,6-2.7h148.2c2.8,0,5,.6,6.5,1.8s3.6,7.6,6.3,19.2c2.7,11.6,4,19.1,4,22.5s-.9,4.2-2.7,4.2-3.9-3.3-7.5-9.9c-4.6-8.8-8.8-15.3-12.6-19.5-6.4-7.2-13.8-11.4-22.2-12.6-1.8-.2-14.2-.2-37.2,0-12.4.2-19.4.5-21,.9-5.8,2-8.7,7.6-8.7,16.8v73.5c1.2,0,3,.4,5.4,1.2,2.4.8,4.3,1.2,5.7,1.2h13.5c15.8,0,26-1.9,30.6-5.7,4.6-3.8,8.3-13.3,11.1-28.5.6-2.8,1.4-4.2,2.4-4.2,2.2,0,3.3,4.1,3.3,12.3v60.6c0,8.2-1,12.3-3,12.3s-2.1-1.4-2.7-4.2c-2.2-12.6-5.2-21.2-8.8-25.8-3.7-4.6-9.4-7.3-17-8.1-1.8-.2-11.6-.3-29.4-.3s-3.3.4-5.7,1.2c-2.4.8-4.2,1.2-5.4,1.2v74.3c0,7.6,2.3,12.7,6.9,15.3,3.4,1.8,9.1,2.7,17.1,2.7h40.8c17-.2,29.7-4.7,38.1-13.4,5.6-5.7,12.3-17.7,20.1-36.1,1.2-2.8,2.2-4.2,3-4.2s1.5,1.1,1.5,3.3Z" style="fill:#fff;"/><path d="M1355.1,210.7c0,1.5-2.4,2.3-7.2,2.3h-40.5l-61.2-80.9c-8.2-10.6-19.8-16-34.8-16s-3.6,4-3.6,12v60.1c0,8.2,2,13.6,6,16.2,3,2,8.8,3,17.4,3s6.2,1,6,3c0,1.8-2,2.7-6,2.7h-76.5c-4,0-6-1-6-3s2.1-2.7,6.2-2.7c8.5,0,14.5-1.1,18-3.4s5.2-7.5,5.2-15.7V29.1c0-8.2-1.9-13.6-5.6-16.2-3.2-2-9-3-17.5-3s-6.1-1-5.9-3c0-1.8,2.1-2.7,6.3-2.7h70.2c27.4,0,47.6,2.7,60.6,8.1,19.8,8.4,29.7,24.3,29.7,47.7s-14.3,41.9-42.9,50.1c-1.8.6-3.6,1.3-5.4,2.1l1.8,2.1c6,7,14.2,17.4,24.6,31.2,8.6,11.6,17.3,23.2,26.1,34.8,13.6,17.2,23.5,26.2,29.7,27,3.6.6,5.4,1.7,5.4,3.4ZM1284,58.8c0-33-18.3-49.5-54.9-49.5s-12.6.9-15.6,2.7c-3.8,2.4-5.7,7.3-5.7,14.7v75c0,5.8.8,8.7,2.4,8.7,23.2,0,40.2-2.8,51-8.4,15.2-7.8,22.8-22.2,22.8-43.2Z" style="fill:#fff;"/></svg>